# Alias OBJ Model File
# Exported from SketchUp, (c) 2000-2012 Trimble Navigation Limited
# File units = inches

mtllib xingkong.mtl

g Mesh1 Group1 Model

usemtl _8
v -32.214 28.4874 -189.335
vt -9.16862 3.56264
vn -1 0 -0
v -32.214 28.4874 -196.299
vt -10.0479 3.56264
v -32.214 20.5279 -196.299
vt -10.0479 2.55765
v -32.214 20.5279 -189.335
vt -9.16862 2.55765
f 1/1/1 2/2/1 3/3/1 4/4/1 

v -14.4765 28.4874 -189.335
vt -2.43546 9.16862
vn 0 1 -0
v -14.4765 28.4874 -196.299
vt -2.43546 10.0479
vt -4.67504 10.0479
vt -4.67504 9.16862
f 5/5/2 6/6/2 2/7/2 1/8/2 

v -14.4765 31.5613 -197.445
vt -10.1927 3.95077
f 5/1/1 7/9/1 6/2/1

v -14.4765 20.1809 -159.248
vt -5.36978 2.51384
f 8/10/1 7/9/1 5/1/1

v -14.4765 20.5279 -157.506
vt -5.14986 2.55765
f 9/11/1 7/9/1 8/10/1

v -14.4765 28.4874 -157.506
vt -5.14986 3.56264
f 10/12/1 7/9/1 9/11/1

v -14.4765 28.4874 -150.542
vt -4.2706 3.56264
f 11/13/1 7/9/1 10/12/1

v -14.4765 31.5613 -150.542
vt -4.2706 3.95077
f 7/9/1 11/13/1 12/14/1

vt -2.26563 5.24764
vn -4.19469e-18 -2.93105e-17 -1
v 26.3956 31.5613 -150.542
vt -7.42625 5.24764
v 26.3956 28.4874 -150.542
vt -7.42625 4.85952
v 26.3956 20.5279 -150.542
vt -7.42625 3.85453
v 26.3956 -10 -150.542
vt -7.42625 2.96059e-16
v 22.2359 -10 -150.542
vt -6.90103 2.96059e-16
v 22.2359 20.1809 -150.542
vt -6.90103 3.81072
v -9.65673 20.1809 -150.542
vt -2.87418 3.81072
v -9.65673 -10 -150.542
vt -2.87418 2.96059e-16
v -14.4765 -10 -150.542
vt -2.26563 2.96059e-16
v -14.4765 20.5279 -150.542
vt -2.26563 3.85453
vt -2.26563 4.85952
f 12/15/3 13/16/3 14/17/3 15/18/3 16/19/3 17/20/3 18/21/3 19/22/3 20/23/3 21/24/3 22/25/3 11/26/3 

v 2.26052 31.5613 -159.308
vt -0.322195 5.37731
vt -2.43546 4.2706
vt 2.72517 4.2706
f 23/27/2 12/28/2 13/29/2

v -1.26331 31.5613 -160.767
vt -0.767123 5.56161
f 24/30/2 12/28/2 23/27/2

v -4.2893 31.5613 -163.089
vt -1.14919 5.85478
f 25/31/2 12/28/2 24/30/2

v -6.61122 31.5613 -166.115
vt -1.44236 6.23685
f 26/32/2 12/28/2 25/31/2

v -8.07084 31.5613 -169.639
vt -1.62666 6.68178
f 27/33/2 12/28/2 26/32/2

vt -2.43546 10.1927
f 12/28/2 27/33/2 7/34/2

v -8.56869 31.5613 -173.421
vt -1.68952 7.15924
f 7/34/2 27/33/2 28/35/2

vt 1.4489 1.43692
vn 1 0 -1.25978e-16
vt 0.965931 1.43692
vn 0.965926 0 -0.258819
v -8.07084 20.1809 -169.639
vt 0.965931 0
v -8.56869 20.1809 -173.421
vt 1.4489 0
f 28/36/4 27/37/5 29/38/5 30/39/4 

vt 0.482965 1.43692
vn 0.866025 0 -0.5
v -6.61122 20.1809 -166.115
vt 0.482965 0
f 27/37/5 26/40/6 31/41/6 29/38/5 

vt 0 1.43692
vn 0.793353 0 -0.608761
v -4.2893 20.1809 -163.089
vt 0 0
f 26/40/6 25/42/7 32/43/7 31/41/6 

vt 2.89779 1.43692
vn 0.608761 0 -0.793353
vt 2.41483 1.43692
vn 0.5 0 -0.866025
v -1.26331 20.1809 -160.767
vt 2.41483 0
vt 2.89779 0
f 25/44/8 24/45/9 33/46/9 32/47/8 

vt 1.93186 1.43692
vn 0.258819 0 -0.965926
v 2.26052 20.1809 -159.308
vt 1.93186 0
f 24/45/9 23/48/10 34/49/10 33/46/9 

v 6.04206 31.5613 -158.81
vn -3.35941e-16 0 -1
v 6.04206 20.1809 -158.81
f 23/48/10 35/36/11 36/39/11 34/49/10 

vt 0.155273 5.31445
f 23/27/2 13/29/2 35/50/2

v 9.82361 31.5613 -159.308
vt 0.63274 5.37731
f 35/50/2 13/29/2 37/51/2

v 13.3474 31.5613 -160.767
vt 1.07767 5.56161
f 37/51/2 13/29/2 38/52/2

v 16.3734 31.5613 -163.089
vt 1.45974 5.85478
f 38/52/2 13/29/2 39/53/2

v 18.6953 31.5613 -166.115
vt 1.75291 6.23685
f 39/53/2 13/29/2 40/54/2

v 20.155 31.5613 -169.639
vt 1.9372 6.68178
f 40/54/2 13/29/2 41/55/2

v 20.6528 31.5613 -173.421
vt 2.00006 7.15924
f 41/55/2 13/29/2 42/56/2

v 26.3956 31.5613 -197.445
vt 2.72517 10.1927
f 43/57/2 42/56/2 13/29/2

v 20.155 31.5613 -177.202
vt 1.9372 7.63671
f 43/57/2 44/58/2 42/56/2

v 18.6953 31.5613 -180.726
vt 1.75291 8.08164
f 43/57/2 45/59/2 44/58/2

v 16.3734 31.5613 -183.752
vt 1.45974 8.46371
f 43/57/2 46/60/2 45/59/2

v 13.3474 31.5613 -186.074
vt 1.07767 8.75688
f 43/57/2 47/61/2 46/60/2

v 9.82361 31.5613 -187.533
vt 0.63274 8.94117
f 43/57/2 48/62/2 47/61/2

v 6.04206 31.5613 -188.031
vt 0.155273 9.00403
f 43/57/2 49/63/2 48/62/2

v 2.26052 31.5613 -187.533
vt -0.322195 8.94117
f 43/57/2 50/64/2 49/63/2

f 7/34/2 50/64/2 43/57/2

v -1.26331 31.5613 -186.074
vt -0.767123 8.75688
f 50/64/2 7/34/2 51/65/2

v -4.2893 31.5613 -183.752
vt -1.14919 8.46371
f 51/65/2 7/34/2 52/66/2

v -6.61122 31.5613 -180.726
vt -1.44236 8.08164
f 52/66/2 7/34/2 53/67/2

v -8.07084 31.5613 -177.202
vt -1.62666 7.63671
f 53/67/2 7/34/2 54/68/2

f 54/68/2 7/34/2 28/35/2

vn 0.965926 0 0.258819
v -8.07084 20.1809 -177.202
f 54/48/12 28/36/4 30/39/4 55/49/12 

v -10.0692 20.1809 -187.593
vt 1.87898 8.94871
vn -8.25987e-17 -1 5.96617e-17
vt 1.62666 7.63671
vt 1.68952 7.15924
f 56/69/13 55/70/13 30/71/13

v -6.61122 20.1809 -180.726
vt 1.44236 8.08164
f 56/69/13 57/72/13 55/70/13

v -4.2893 20.1809 -183.752
vt 1.14919 8.46371
f 56/69/13 58/73/13 57/72/13

v -1.26331 20.1809 -186.074
vt 0.767123 8.75688
f 56/69/13 59/74/13 58/73/13

v 22.2359 20.1809 -197.445
vt -2.19994 10.1927
f 56/69/13 60/75/13 59/74/13

v -10.0692 20.1809 -197.445
vt 1.87898 10.1927
f 60/75/13 56/69/13 61/76/13

vt 8.94871 2.51384
vn 1 1.26288e-17 6.39101e-17
v -10.0692 9.6449 -189.458
vt 9.1842 1.18354
vt 10.1927 2.51384
f 56/77/14 62/78/14 61/79/14

v -10.0692 -10 -189.458
vt 9.1842 -1.29687
f 56/77/14 63/80/14 62/78/14

v -10.0692 -10 -187.593
vt 8.94871 -1.29687
f 63/80/14 56/77/14 64/81/14

v -14.4765 -10 -187.593
vt -2.43546 -1.29687
vn 0 0 1
vt -1.87898 -1.29687
vt -1.87898 2.51384
v -14.4765 20.1809 -187.593
vt -2.43546 2.51384
f 65/82/15 64/83/15 56/84/15 66/85/15 

vt 2.43546 8.94871
vn 0 -1 -0
v -14.4765 -10 -189.458
vt 2.43546 9.1842
vt 1.87898 9.1842
f 65/86/16 67/87/16 63/88/16 64/69/16 

vt -8.94871 -1.29687
v -14.4765 20.5279 -189.335
vt -9.1842 -1.29687
f 65/89/1 68/4/1 67/90/1

f 68/4/1 65/89/1 5/1/1

vt -8.94871 2.51384
f 66/91/1 5/1/1 65/89/1

f 8/10/1 5/1/1 66/91/1

vt 2.43546 5.36978
f 56/69/13 8/92/13 66/86/13

v -9.65673 20.1809 -159.248
vt 1.8269 5.36978
f 8/92/13 56/69/13 69/93/13

f 56/69/13 30/71/13 69/93/13

vt 1.8269 4.2706
f 69/93/13 30/71/13 19/94/13

vt 1.62666 6.68178
f 29/95/13 19/94/13 30/71/13

vt 1.44236 6.23685
f 31/96/13 19/94/13 29/95/13

vt 1.14919 5.85478
f 32/97/13 19/94/13 31/96/13

vt 0.767123 5.56161
f 33/98/13 19/94/13 32/97/13

vt -2.19994 4.2706
f 19/94/13 33/98/13 18/99/13

vt 0.322195 5.37731
f 18/99/13 33/98/13 34/100/13

vt -0.155273 5.31445
f 18/99/13 34/100/13 36/101/13

v 9.82361 20.1809 -159.308
vt -0.63274 5.37731
f 18/99/13 36/101/13 70/102/13

vn -0.258819 0 -0.965926
f 35/36/11 37/37/17 70/38/17 36/39/11 

vn -0.5 0 -0.866025
v 13.3474 20.1809 -160.767
f 37/37/17 38/40/18 71/41/18 70/38/17 

vt 1.77636e-15 1.43692
vn -0.608761 0 -0.793353
v 16.3734 20.1809 -163.089
vt 1.77636e-15 0
f 38/40/18 39/103/19 72/104/19 71/41/18 

vn -0.793353 0 -0.608761
vn -0.866025 0 -0.5
v 18.6953 20.1809 -166.115
vt 2.41483 4.44089e-16
vt 2.89779 4.44089e-16
f 39/44/20 40/45/21 73/105/21 72/106/20 

vn -0.965926 0 -0.258819
v 20.155 20.1809 -169.639
f 40/45/21 41/48/22 74/49/22 73/46/21 

vn -1 0 1.25978e-16
v 20.6528 20.1809 -173.421
f 41/48/22 42/36/23 75/39/23 74/49/22 

vn -0.965926 0 0.258819
v 20.155 20.1809 -177.202
vt 0.965931 -8.88178e-16
vt 1.4489 -8.88178e-16
f 42/36/23 44/37/24 76/107/24 75/108/23 

vn -0.866025 0 0.5
v 18.6953 20.1809 -180.726
f 44/37/24 45/40/25 77/41/25 76/38/24 

vt 1.72085e-15 1.43692
vn -0.793353 0 0.608761
v 16.3734 20.1809 -183.752
vt 1.72085e-15 0
f 45/40/25 46/109/26 78/110/26 77/41/25 

vn -0.608761 0 0.793353
vn -0.5 0 0.866025
v 13.3474 20.1809 -186.074
f 46/44/27 47/45/28 79/46/28 78/47/27 

vn -0.258819 0 0.965926
v 9.82361 20.1809 -187.533
vt 1.93186 4.44089e-16
f 47/45/28 48/48/29 80/111/29 79/105/28 

vn -6.99877e-17 0 1
v 6.04206 20.1809 -188.031
f 48/48/29 49/36/30 81/39/30 80/49/29 

vn 0.258819 0 0.965926
v 2.26052 20.1809 -187.533
f 49/36/30 50/37/31 82/38/31 81/39/30 

vn 0.5 0 0.866025
vt 0.482965 4.44089e-16
vt 0.965931 4.44089e-16
f 50/37/31 51/40/32 59/112/32 82/113/31 

vt 8.88178e-16 1.43692
vn 0.608761 0 0.793353
vt 8.88178e-16 0
f 51/40/32 52/114/33 58/115/33 59/41/32 

vn 0.793353 0 0.608761
vn 0.866025 0 0.5
f 52/44/34 53/45/35 57/105/35 58/106/34 

f 53/45/35 54/48/12 55/49/12 57/46/35 

vt 0.322195 8.94117
f 59/74/13 60/75/13 82/116/13

vt -0.155273 9.00403
f 82/116/13 60/75/13 81/117/13

vt -0.63274 8.94117
f 81/117/13 60/75/13 80/118/13

vt -1.07767 8.75688
f 80/118/13 60/75/13 79/119/13

vt -1.45974 8.46371
f 79/119/13 60/75/13 78/120/13

vt -1.75291 8.08164
f 78/120/13 60/75/13 77/121/13

vt -1.9372 7.63671
f 77/121/13 60/75/13 76/122/13

vt -2.00006 7.15924
f 76/122/13 60/75/13 75/123/13

v 22.2359 20.1809 -159.248
vt -2.19994 5.36978
f 83/124/13 75/123/13 60/75/13

v 20.2146 20.1809 -159.248
vt -1.94474 5.36978
f 84/125/13 75/123/13 83/124/13

vt -1.9372 6.68178
f 75/123/13 84/125/13 74/126/13

v 20.2146 20.1809 -155.402
vt -1.94474 4.88416
f 85/127/13 74/126/13 84/125/13

vt -1.75291 6.23685
f 85/127/13 73/128/13 74/126/13

vt -1.45974 5.85478
f 85/127/13 72/129/13 73/128/13

f 18/99/13 72/129/13 85/127/13

vt -1.07767 5.56161
f 18/99/13 71/130/13 72/129/13

f 18/99/13 70/102/13 71/130/13

v 22.2359 20.1809 -155.402
vt -2.19994 4.88416
f 18/99/13 85/127/13 86/131/13

v 20.2146 20.1809 -156.393
vt -1.94474 5.00928
v 22.2359 20.1809 -156.393
vt -2.19994 5.00928
f 87/132/16 88/133/16 86/131/16 85/127/16 

f 83/124/16 88/133/16 87/132/16 84/125/16 

v 22.2359 9.6449 -158.084
vt -5.22283 1.18354
vn -1 5.12675e-17 6.02738e-17
vt -5.00928 2.51384
f 89/134/36 88/135/36 83/10/36

vt -4.88416 2.51384
f 89/134/36 86/136/36 88/135/36

v 22.2359 9.6449 -153.834
vt -4.68624 1.18354
f 90/137/36 86/136/36 89/134/36

vt -4.2706 -1.29688
f 17/138/36 86/136/36 90/137/36

vt -4.2706 2.51384
f 86/136/36 17/138/36 18/139/36

v 22.2359 -10 -153.834
vt -4.68624 -1.29688
f 90/137/36 91/140/36 17/138/36

v 22.2359 1.15692 -153.834
vt -4.68624 0.111827
f 91/140/36 90/137/36 92/141/36

v 26.3956 9.6449 -153.834
vt -2.72517 1.18354
vn 0 0 -1
v 26.3956 1.15692 -153.834
vt -2.72517 0.111827
vt -2.19994 0.111827
vt -2.19994 1.18354
f 93/142/37 94/143/37 92/144/37 90/145/37 

v 26.3956 -10 -153.834
vt -0.415646 2.96059e-16
vt -0.415646 2.48042
vt -0.415646 1.4087
f 95/146/1 93/147/1 94/148/1

vt -5.92119e-16 3.85453
f 95/146/1 15/149/1 93/147/1

vt 0 2.96059e-16
f 15/149/1 95/146/1 16/150/1

vt -2.19994 4.68624
vt -2.72517 4.68624
vt -2.72517 4.2706
f 17/99/16 91/151/16 95/152/16 16/153/16 

vt -2.19994 -1.29688
v 22.2359 0.56 -153.834
vt -2.19994 0.0364583
v 26.3956 0.56 -153.834
vt -2.72517 0.0364583
vt -2.72517 -1.29688
f 91/154/37 96/155/37 97/156/37 95/157/37 

vt -4.68624 0.0364583
f 91/140/36 92/141/36 96/158/36

v 22.2359 1.15692 -158.084
vt -5.22283 0.111827
f 98/159/36 96/158/36 92/141/36

v 22.2359 0.56 -158.084
vt -5.22283 0.0364583
f 96/158/36 98/159/36 99/160/36

f 98/159/36 83/10/36 99/160/36

f 89/134/36 83/10/36 98/159/36

vt 2.19994 1.18354
vt 2.19994 0.111827
v 26.3956 1.15692 -158.084
vt 2.72517 0.111827
v 26.3956 9.6449 -158.084
vt 2.72517 1.18354
f 89/161/15 98/162/15 100/163/15 101/164/15 

vt 2.72517 5.22283
vt 2.19994 5.22283
vt 2.19994 4.68624
vt 2.72517 4.68624
f 100/165/2 98/166/2 92/167/2 94/168/2 

vt 2.72517 0.0364583
vt 2.19994 0.0364583
f 97/169/15 94/163/15 92/162/15 96/170/15 

vt -0.95223 1.4087
vt -0.415646 1.33333
f 100/171/1 97/172/1 94/148/1

v 26.3956 0.56 -158.084
vt -0.95223 1.33333
f 97/172/1 100/171/1 102/173/1

v 26.3956 20.1809 -159.248
vt -1.09918 3.81072
f 100/171/1 103/174/1 102/173/1

vt -0.95223 2.48042
f 101/175/1 103/174/1 100/171/1

v 26.3956 20.5279 -157.506
vt -0.879268 3.85453
f 104/176/1 103/174/1 101/175/1

vt -5.92208 5.24764
f 104/176/1 43/177/1 103/174/1

v 26.3956 28.4874 -157.506
vt -0.879268 4.85952
f 105/178/1 43/177/1 104/176/1

vt -5.92119e-16 4.85952
f 14/179/1 43/177/1 105/178/1

vt 0 5.24764
f 43/177/1 14/179/1 13/180/1

v 38.5231 28.4874 -150.542
vt -4.25642 4.2706
vt -2.72517 5.14986
v 38.5231 28.4874 -157.506
vt -4.25642 5.14986
f 106/181/16 14/153/16 105/182/16 107/183/16 

v 38.5231 20.5279 -150.542
vt -4.25642 2.55765
vt -2.72517 2.55765
vt -2.72517 3.56264
vt -4.25642 3.56264
f 108/184/37 15/185/37 14/186/37 106/187/37 

v 38.5231 20.5279 -157.506
vt 4.25642 5.14986
vt 2.72517 5.14986
vt 4.25642 4.2706
f 109/188/2 104/189/2 15/29/2 108/190/2 

vt 4.25642 3.56264
vn 0 -5.89177e-16 1
vt 2.72517 3.56264
vt 2.72517 2.55765
vt 4.25642 2.55765
f 107/191/38 105/192/38 104/193/38 109/194/38 

vt -4.2706 2.55765
f 106/13/1 107/12/1 109/11/1 108/195/1 

f 104/176/1 93/147/1 15/149/1

f 93/147/1 104/176/1 101/175/1

vt -2.19994 5.22283
vt -2.72517 5.22283
f 90/151/16 89/196/16 101/197/16 93/152/16 

v 26.3956 28.4874 -189.335
vt -4.89803 4.85952
f 103/174/1 43/177/1 110/198/1

v 26.3956 28.4874 -196.299
vt -5.77729 4.85952
f 110/198/1 43/177/1 111/199/1

v 26.3956 20.5279 -196.299
vt -5.77729 3.85453
f 111/199/1 43/177/1 112/200/1

v 26.3956 -10 -197.445
vt -5.92208 2.96059e-16
f 113/201/1 112/200/1 43/177/1

v 26.3956 -10 -194.203
vt -5.51269 2.96059e-16
f 114/202/1 112/200/1 113/201/1

v 26.3956 0.56 -194.203
vt -5.51269 1.33333
f 115/203/1 112/200/1 114/202/1

v 26.3956 1.40815 -194.203
vt -5.51269 1.44042
f 116/204/1 112/200/1 115/203/1

v 26.3956 9.6449 -194.203
vt -5.51269 2.48042
f 117/205/1 112/200/1 116/204/1

v 26.3956 20.5279 -189.335
vt -4.89803 3.85453
f 117/205/1 118/206/1 112/200/1

v 26.3956 9.6449 -189.252
vt -4.88756 2.48042
f 119/207/1 118/206/1 117/205/1

f 118/206/1 119/207/1 110/198/1

v 26.3956 -10 -187.593
vt -4.67811 0
f 120/208/1 110/198/1 119/207/1

v 26.3956 20.1809 -187.593
vt -4.67811 3.81072
f 121/209/1 110/198/1 120/208/1

f 103/174/1 110/198/1 121/209/1

vt -2.72517 8.94871
vt -2.72517 5.36978
f 83/124/13 121/210/13 103/211/13

v 22.2359 20.1809 -187.593
vt -2.19994 8.94871
f 83/124/13 122/212/13 121/210/13

f 83/124/13 60/75/13 122/212/13

v 22.2359 9.6449 -189.252
vt -9.15816 1.18354
vn -1 5.33591e-17 2.64438e-16
vt -10.1927 2.51384
f 123/213/39 122/91/39 60/214/39

v 22.2359 -10 -187.593
vt -8.94871 -1.29688
f 122/91/39 123/213/39 124/215/39

v 22.2359 -10 -189.252
vt -9.15816 -1.29688
f 123/213/39 125/216/39 124/215/39

v 22.2359 1.40815 -189.252
vt -9.15816 0.143548
f 125/216/39 123/213/39 126/217/39

vn -2.44376e-32 -1.1387e-15 1
vt 2.19994 0.143548
v 26.3956 1.40815 -189.252
vt 2.72517 0.143548
f 123/161/40 126/218/40 127/219/40 119/164/40 

v 22.2359 0.56 -189.252
vt -2.19994 0.143548
vt -2.72517 0.143548
v 26.3956 0.56 -189.252
f 128/155/37 126/220/37 127/221/37 129/156/37 

vt -9.15816 0.0364583
f 125/216/39 126/217/39 128/222/39

v 22.2359 1.40815 -194.203
vt -9.78329 0.143548
f 128/222/39 126/217/39 130/223/39

vt -2.19994 9.78329
vt -2.72517 9.78329
vt -2.72517 9.15816
vt -2.19994 9.15816
f 130/224/16 116/225/16 127/226/16 126/227/16 

v 22.2359 9.6449 -194.203
f 117/142/37 116/221/37 130/220/37 131/145/37 

vt -9.78329 1.18354
f 131/228/39 60/214/39 130/223/39

f 123/213/39 60/214/39 131/228/39

vt 2.19994 9.15816
vt 2.72517 9.15816
vt 2.72517 9.78329
vt 2.19994 9.78329
f 123/229/2 119/230/2 117/231/2 131/232/2 

v 22.2359 0.56 -194.203
vt -9.78329 0.0364583
f 130/223/39 60/214/39 132/233/39

v 22.2359 0.56 -197.445
vt -10.1927 0.0364583
f 132/233/39 60/214/39 133/234/39

vt 2.72517 3.95077
vt -2.43546 3.95077
v -14.4765 -10 -197.445
vt -2.43546 -1.29688
v -10.0692 -10 -197.445
vt -1.87898 -1.29688
v -10.0692 0.56 -197.445
vt -1.87898 0.0364583
vt 2.19994 2.51384
v 22.2359 -10 -197.445
vt 2.19994 -1.29688
vt 2.72517 -1.29688
f 43/235/15 7/236/15 134/237/15 135/238/15 136/239/15 61/84/15 60/240/15 133/170/15 137/241/15 113/242/15 

vt -10.1927 -1.29688
v -14.4765 20.5279 -196.299
f 134/243/1 138/3/1 7/9/1

v -14.4765 -10 -194.45
vt -9.81454 -1.29688
f 139/244/1 138/3/1 134/243/1

v -14.4765 0.56 -194.45
vt -9.81454 0.0364583
f 140/245/1 138/3/1 139/244/1

v -14.4765 1.32236 -194.45
vt -9.81454 0.132716
f 141/246/1 138/3/1 140/245/1

v -14.4765 9.6449 -194.45
vt -9.81454 1.18354
f 142/247/1 138/3/1 141/246/1

v -14.4765 9.6449 -189.458
vt -9.1842 1.18354
f 143/248/1 138/3/1 142/247/1

f 138/3/1 143/248/1 68/4/1

f 67/90/1 68/4/1 143/248/1

v -14.4765 1.32236 -189.458
vt -9.1842 0.132716
f 67/90/1 143/248/1 144/249/1

vt 1.87898 1.18354
v -10.0692 1.32236 -189.458
vt 1.87898 0.132716
vt 2.43546 0.132716
vt 2.43546 1.18354
f 62/250/37 145/251/37 144/252/37 143/253/37 

v -10.0692 0.56 -189.458
vt 9.1842 0.0364583
vt 9.1842 0.132716
f 62/78/14 146/254/14 145/255/14

f 62/78/14 63/80/14 146/254/14

vt 2.43546 -1.29687
v -14.4765 0.56 -189.458
vt 2.43546 0.0364583
vt 1.87898 0.0364583
vt 1.87898 -1.29687
f 67/256/37 147/257/37 146/258/37 63/259/37 

vt -9.1842 0.0364583
f 67/90/1 144/249/1 147/260/1

f 141/246/1 147/260/1 144/249/1

f 147/260/1 141/246/1 140/245/1

vt 2.43546 9.81454
vn -6.65034e-17 -1 -5.87108e-17
v -10.0692 0.56 -194.45
vt 1.87898 9.81454
f 140/261/41 148/262/41 146/88/41 147/87/41 

v -10.0692 -10 -194.45
vt -2.43546 0.0364583
f 149/238/15 148/239/15 140/263/15 139/237/15 

vt 10.1927 -1.29687
vn 1 3.33067e-16 -1.95732e-15
vt 10.1927 0.0364583
vt 9.81454 0.0364583
vt 9.81454 -1.29687
f 135/264/42 136/265/42 148/266/42 149/267/42 

v -10.0692 1.32236 -194.45
vt 9.81454 0.132716
f 150/268/14 148/266/14 136/265/14

f 145/255/14 148/266/14 150/268/14

f 148/266/14 145/255/14 146/254/14

vt -1.87898 0.132716
vt -2.43546 0.132716
f 146/239/15 145/269/15 144/270/15 147/263/15 

vt -1.87898 9.81454
vt -2.43546 9.81454
vt -2.43546 9.1842
vt -1.87898 9.1842
f 150/271/2 141/272/2 144/273/2 145/274/2 

vt -2.43546 1.18354
v -10.0692 9.6449 -194.45
vt -1.87898 1.18354
f 142/275/15 141/270/15 150/269/15 151/276/15 

vt 9.81454 1.18354
f 150/268/14 136/265/14 151/277/14

f 61/79/14 151/277/14 136/265/14

f 61/79/14 62/78/14 151/277/14

f 62/88/16 143/87/16 142/261/16 151/262/16 

vt 2.43546 10.1927
f 134/278/16 135/76/16 149/262/16 139/261/16 

vt 2.43546 10.0479
vt 2.43546 9.16862
vt 4.67504 9.16862
vt 4.67504 10.0479
f 138/279/16 68/280/16 4/281/16 3/282/16 

vt -2.43546 2.55765
vt -2.43546 3.56264
vt -4.67504 3.56264
vt -4.67504 2.55765
f 68/283/15 5/284/15 1/285/15 4/286/15 

vt 2.43546 3.56264
vt 2.43546 2.55765
vt 4.67504 2.55765
vt 4.67504 3.56264
f 6/287/37 138/288/37 3/289/37 2/290/37 

f 6/2/1 7/9/1 138/3/1

v 22.2359 -10 -194.203
vt -9.78329 -1.29688
vn -1 -3.33067e-16 3.61582e-16
f 152/291/43 132/233/43 133/234/43 137/243/43 

f 152/154/37 132/155/37 115/156/37 114/157/37 

vn 1.4092e-16 1 4.44843e-33
f 115/231/44 132/232/44 128/229/44 129/230/44 

f 128/222/39 130/223/39 132/233/39

v 26.3956 -10 -189.252
vt 2.72517 -1.29687
vn -2.82207e-46 8.88178e-16 1
vt 2.19994 -1.29687
f 153/292/45 129/169/45 128/170/45 125/293/45 

vt -4.88756 0
vt -4.88756 1.44042
vt -4.88756 1.33333
f 153/294/1 127/295/1 129/296/1

f 153/294/1 119/207/1 127/295/1

f 119/207/1 153/294/1 120/208/1

f 125/227/16 153/226/16 120/210/16 124/212/16 

vn 9.24777e-16 4.74575e-16 -1
vt -2.19994 2.51384
vt -2.72517 2.51384
f 124/154/46 122/297/46 121/298/46 120/157/46 

f 129/296/1 127/295/1 116/204/1

f 129/296/1 116/204/1 115/203/1

vt -2.72517 10.1927
f 137/75/16 113/299/16 114/225/16 152/224/16 

v 26.3956 -10 -159.248
vn -2.25473e-15 -7.98391e-33 -1
v 22.2359 -10 -159.248
v 22.2359 0.56 -159.248
f 154/157/47 155/154/47 156/155/47 83/297/47 103/298/47 

v 26.3956 -10 -158.084
v 22.2359 -10 -158.084
f 155/124/16 154/211/16 157/197/16 158/196/16 

vt -1.09918 2.96059e-16
vt -0.95223 2.96059e-16
f 154/300/1 157/301/1 103/174/1

f 102/173/1 103/174/1 157/301/1

vn 1.12736e-15 4.44089e-16 1
f 157/292/48 102/169/48 99/170/48 158/293/48 

vn -1.4092e-16 -1 -0
f 99/196/49 102/197/49 97/152/49 96/151/49 

vt -5.22283 -1.29688
vn -1 -2.22045e-16 -2.01464e-15
vt -5.36978 0.0364583
vt -5.36978 -1.29688
f 158/302/50 99/160/50 156/303/50 155/304/50 

f 99/160/36 83/10/36 156/303/36

v 40.4206 20.5279 -189.335
vt -4.496 2.55765
v 40.4206 28.4874 -189.335
vt -4.496 3.56264
f 159/305/37 118/185/37 110/186/37 160/306/37 

v 31.2219 20.5279 -196.299
vt 3.33454 10.0479
vt 2.72517 10.0479
vt 2.72517 9.16862
vt 4.496 9.16862
v 40.4206 20.5279 -196.299
vt 4.496 10.0479
f 161/307/2 112/308/2 118/309/2 159/310/2 162/311/2 

v 40.4206 28.4874 -196.299
vt 4.496 3.56264
vt 3.33454 2.55765
vt 4.496 2.55765
f 163/312/15 111/192/15 112/193/15 161/313/15 162/314/15 

vt -4.496 9.16862
vt -2.72517 9.16862
vt -2.72517 10.0479
vt -4.496 10.0479
f 160/315/16 110/316/16 111/317/16 163/318/16 

f 160/1/1 163/2/1 162/3/1 159/4/1 

f 95/146/1 94/148/1 97/172/1

f 85/127/13 84/125/13 87/132/13

vt 4.2706 2.51384
vn 1 0 -0
v -9.65673 9.6449 -153.504
vt 4.64457 1.18354
vt 5.36978 2.51384
f 19/319/51 164/320/51 69/321/51

v -9.65673 1.27466 -153.504
vt 4.64457 0.126693
f 19/319/51 165/322/51 164/320/51

v -9.65673 -10 -153.504
vt 4.64457 -1.29688
f 19/319/51 166/323/51 165/322/51

vt 4.2706 -1.29688
f 166/323/51 19/319/51 20/324/51

vt 2.43546 4.2706
v -14.4765 -10 -153.504
vt 2.43546 4.64457
vt 1.8269 4.64457
f 21/325/16 167/326/16 166/327/16 20/94/16 

vt -4.64457 -1.29688
f 22/195/1 167/328/1 21/138/1

v -14.4765 1.27466 -153.504
vt -4.64457 0.126693
f 167/328/1 22/195/1 168/329/1

v -14.4765 9.6449 -153.504
vt -4.64457 1.18354
f 168/329/1 22/195/1 169/330/1

f 169/330/1 22/195/1 9/11/1

vt 2.43546 5.14986
v -32.4203 20.5279 -150.542
vt 4.70108 4.2706
v -32.4203 20.5279 -157.506
vt 4.70108 5.14986
f 9/331/16 22/325/16 170/332/16 171/333/16 

v -32.4203 28.4874 -150.542
vt -4.70108 3.56264
vt -4.70108 2.55765
f 22/283/38 11/284/38 172/334/38 170/335/38 

vt -2.43546 5.14986
v -32.4203 28.4874 -157.506
vt -4.70108 5.14986
vt -4.70108 4.2706
f 11/28/2 10/336/2 173/337/2 172/338/2 

vt 4.70108 2.55765
vt 4.70108 3.56264
f 10/287/37 9/288/37 171/339/37 173/340/37 

f 172/13/1 173/12/1 171/11/1 170/195/1 

v -14.4765 9.6449 -158.084
f 169/330/1 9/11/1 174/134/1

f 9/11/1 8/10/1 174/134/1

v -14.4765 1.27466 -158.084
vt -5.22283 0.126693
f 174/134/1 8/10/1 175/341/1

v -14.4765 0.56 -158.084
f 175/341/1 8/10/1 176/160/1

v -14.4765 -10 -158.084
f 176/160/1 8/10/1 177/302/1

v -14.4765 -10 -159.248
f 178/304/1 177/302/1 8/10/1

vt 2.43546 5.22283
v -9.65673 -10 -159.248
v -9.65673 -10 -158.084
vt 1.8269 5.22283
f 177/342/16 178/92/16 179/93/16 180/343/16 

vt 2.43546 -1.29688
vt 2.43546 2.51384
vt 1.8269 2.51384
v -9.65673 0.56 -159.248
vt 1.8269 0.0364583
vt 1.8269 -1.29688
f 178/344/37 8/345/37 69/346/37 181/347/37 179/348/37 

v -9.65673 9.6449 -158.084
vt 5.22283 1.18354
vt 5.36978 0.0364583
f 69/321/51 182/349/51 181/350/51

f 69/321/51 164/320/51 182/349/51

f 182/343/16 164/327/16 169/326/16 174/342/16 

vt 1.8269 1.18354
vn 0 -5.60268e-16 -1
vt 1.8269 0.126693
vt 2.43546 0.126693
f 164/351/52 165/352/52 168/353/52 169/253/52 

v -9.65673 1.27466 -158.084
vt -1.8269 5.22283
vt -2.43546 5.22283
vt -2.43546 4.64457
vt -1.8269 4.64457
f 183/354/2 175/355/2 168/356/2 165/357/2 

vt -2.43546 0.126693
vt -1.8269 0.126693
vt -1.8269 1.18354
f 174/275/15 175/358/15 183/359/15 182/360/15 

vt 5.22283 0.126693
f 183/361/51 181/350/51 182/349/51

v -9.65673 0.56 -158.084
vt 5.22283 0.0364583
f 183/361/51 184/362/51 181/350/51

f 165/322/51 184/362/51 183/361/51

v -9.65673 0.56 -153.504
vt 4.64457 0.0364583
f 184/362/51 165/322/51 185/363/51

vt -1.8269 0.0364583
v -14.4765 0.56 -153.504
f 185/364/15 165/359/15 168/358/15 186/263/15 

f 165/322/51 166/323/51 185/363/51

vn 5.9169e-32 -4.44089e-16 -1
vt 1.8269 -1.29687
f 167/256/53 186/257/53 185/347/53 166/365/53 

vt -4.64457 0.0364583
f 168/329/1 186/366/1 167/328/1

f 186/366/1 168/329/1 175/341/1

f 186/366/1 175/341/1 176/160/1

vn 1.21623e-16 -1 1.27998e-16
f 176/342/54 184/343/54 185/327/54 186/326/54 

vt -1.8269 -1.29688
vn 0 -4.44089e-16 1
f 180/367/55 184/364/55 176/263/55 177/237/55 

vt 5.36978 -1.29688
vt 5.22283 -1.29688
f 179/368/51 181/350/51 184/362/51 180/369/51 

